<svg width="28" height="30" viewBox="0 0 28 30" fill="none" xmlns="http://www.w3.org/2000/svg">
  <path d="M9.13687 2.5H18.8632C22.5685 2.5 25.579 5.75 25.579 9.75V20.25C25.579 22.1728 24.8714 24.0169 23.612 25.3765C22.3525 26.7362 20.6443 27.5 18.8632 27.5H9.13687C5.43161 27.5 2.42108 24.25 2.42108 20.25V9.75C2.42108 7.82718 3.12864 5.98311 4.38809 4.62348C5.64755 3.26384 7.35573 2.5 9.13687 2.5ZM8.90529 5C7.79976 5 6.7395 5.47411 5.95777 6.31802C5.17604 7.16193 4.73687 8.30653 4.73687 9.5V20.5C4.73687 22.9875 6.60108 25 8.90529 25H19.0948C20.2003 25 21.2606 24.5259 22.0423 23.682C22.824 22.8381 23.2632 21.6935 23.2632 20.5V9.5C23.2632 7.0125 21.399 5 19.0948 5H8.90529ZM20.079 6.875C20.4628 6.875 20.831 7.03962 21.1024 7.33265C21.3739 7.62567 21.5263 8.0231 21.5263 8.4375C21.5263 8.8519 21.3739 9.24933 21.1024 9.54235C20.831 9.83538 20.4628 10 20.079 10C19.6951 10 19.327 9.83538 19.0555 9.54235C18.7841 9.24933 18.6316 8.8519 18.6316 8.4375C18.6316 8.0231 18.7841 7.62567 19.0555 7.33265C19.327 7.03962 19.6951 6.875 20.079 6.875ZM14 8.75C15.5355 8.75 17.0081 9.40848 18.0938 10.5806C19.1795 11.7527 19.7895 13.3424 19.7895 15C19.7895 16.6576 19.1795 18.2473 18.0938 19.4194C17.0081 20.5915 15.5355 21.25 14 21.25C12.4646 21.25 10.992 20.5915 9.90625 19.4194C8.82052 18.2473 8.21056 16.6576 8.21056 15C8.21056 13.3424 8.82052 11.7527 9.90625 10.5806C10.992 9.40848 12.4646 8.75 14 8.75ZM14 11.25C13.0788 11.25 12.1952 11.6451 11.5438 12.3483C10.8923 13.0516 10.5263 14.0054 10.5263 15C10.5263 15.9946 10.8923 16.9484 11.5438 17.6517C12.1952 18.3549 13.0788 18.75 14 18.75C14.9213 18.75 15.8049 18.3549 16.4563 17.6517C17.1077 16.9484 17.4737 15.9946 17.4737 15C17.4737 14.0054 17.1077 13.0516 16.4563 12.3483C15.8049 11.6451 14.9213 11.25 14 11.25Z" fill="white" />
</svg>
