<svg width="28" height="30" viewBox="0 0 28 30" fill="none" xmlns="http://www.w3.org/2000/svg">
  <path d="M19.4316 7.275C18.6403 6.29941 18.2041 5.04675 18.2042 3.75H14.6264V19.25C14.5993 20.089 14.2715 20.8838 13.712 21.4669C13.1525 22.0499 12.405 22.3755 11.6274 22.375C9.98319 22.375 8.61688 20.925 8.61688 19.125C8.61688 16.975 10.539 15.3625 12.519 16.025V12.075C8.52425 11.5 5.0274 14.85 5.0274 19.125C5.0274 23.2875 8.22319 26.25 11.6158 26.25C15.2516 26.25 18.2042 23.0625 18.2042 19.125V11.2625C19.6551 12.3873 21.397 12.9908 23.1832 12.9875V9.125C23.1832 9.125 21.0064 9.2375 19.4316 7.275Z" fill="white" />
</svg>
