<svg width="28" height="30" viewBox="0 0 28 30" fill="none" xmlns="http://www.w3.org/2000/svg">
  <path d="M11.579 18.75L17.5884 15L11.579 11.25V18.75ZM24.9642 8.9625C25.1147 9.55 25.219 10.3375 25.2884 11.3375C25.3695 12.3375 25.4042 13.2 25.4042 13.95L25.4737 15C25.4737 17.7375 25.2884 19.75 24.9642 21.0375C24.6747 22.1625 24.0032 22.8875 22.9611 23.2C22.4169 23.3625 21.4211 23.475 19.8926 23.55C18.3874 23.6375 17.0095 23.675 15.7358 23.675L13.8947 23.75C9.04316 23.75 6.02106 23.55 4.82843 23.2C3.78632 22.8875 3.11474 22.1625 2.82527 21.0375C2.67474 20.45 2.57053 19.6625 2.50106 18.6625C2.42001 17.6625 2.38527 16.8 2.38527 16.05L2.3158 15C2.3158 12.2625 2.50106 10.25 2.82527 8.9625C3.11474 7.8375 3.78632 7.1125 4.82843 6.8C5.37264 6.6375 6.36843 6.525 7.89685 6.45C9.40211 6.3625 10.78 6.325 12.0537 6.325L13.8947 6.25C18.7463 6.25 21.7684 6.45 22.9611 6.8C24.0032 7.1125 24.6747 7.8375 24.9642 8.9625Z" fill="#F8F8F8" />
</svg>
